<?xml version="1.0" encoding="UTF-8" standalone="no"?>
<!DOCTYPE svg PUBLIC "-//W3C//DTD SVG 1.1//EN" "http://www.w3.org/Graphics/SVG/1.1/DTD/svg11.dtd">
<svg width="100%" height="100%" viewBox="0 0 20 38" version="1.1" xmlns="http://www.w3.org/2000/svg" xmlns:xlink="http://www.w3.org/1999/xlink" xml:space="preserve" xmlns:serif="http://www.serif.com/" style="fill-rule:evenodd;clip-rule:evenodd;stroke-linejoin:round;stroke-miterlimit:2;">
    <g transform="matrix(1,0,0,1,-1010.43,-466.714)">
        <g transform="matrix(-1.14268,-1.39938e-16,1.39938e-16,-1.14268,1663.98,1131.68)">
            <path d="M566.654,549.284C566.804,549.273 566.951,549.325 567.06,549.427C567.169,549.53 567.229,549.674 567.227,549.823C567.218,550.469 567.201,562.262 567.192,562.761C567.189,562.951 567.246,563.138 567.355,563.295C567.727,563.829 568.589,565.065 568.589,565.065C568.589,565.065 571.143,568.929 571.894,570.065C571.944,570.141 571.958,570.236 571.93,570.323C571.903,570.41 571.838,570.48 571.753,570.513C571.483,570.62 571.153,570.751 571.153,570.751C570.65,570.95 570.117,570.748 569.62,570.624C569.242,570.53 568.504,570.259 567.954,570.049C567.79,569.989 567.608,570.01 567.462,570.105C567.317,570.2 567.224,570.358 567.213,570.532C567.058,572.95 566.585,580.363 566.585,580.363C566.572,580.57 566.4,580.731 566.193,580.731L565.27,580.731C565.063,580.731 564.892,580.571 564.878,580.365C564.878,580.365 564.393,573.208 564.311,571.991C564.304,571.886 564.232,571.795 564.132,571.764C564.131,571.764 564.131,571.764 564.13,571.763C564.059,571.741 563.981,571.751 563.918,571.791C563.854,571.831 563.811,571.897 563.801,571.971C563.558,573.62 562.386,581.599 562.386,581.599C562.355,581.804 562.172,581.95 561.965,581.933L561.045,581.857C560.839,581.84 560.682,581.667 560.685,581.461C560.685,581.461 560.977,572.598 561.019,571.321C561.022,571.227 560.97,571.141 560.887,571.1C560.886,571.1 560.886,571.1 560.886,571.1C560.821,571.068 560.746,571.067 560.681,571.098C560.616,571.128 560.569,571.186 560.552,571.256C560.174,572.787 558.407,579.965 558.407,579.965C558.358,580.166 558.16,580.295 557.957,580.258L557.147,580.113C556.943,580.077 556.803,579.889 556.826,579.683C556.826,579.683 557.503,573.644 557.803,570.974C557.815,570.862 557.746,570.758 557.639,570.725C557.532,570.692 557.416,570.741 557.364,570.84C556.804,571.918 556.037,573.391 556.037,573.391C555.942,573.575 555.719,573.653 555.53,573.569L555.079,573.368C554.89,573.285 554.799,573.069 554.87,572.875C554.87,572.875 557.82,564.854 558.095,564.104C558.109,564.067 558.119,564.028 558.124,563.989C558.135,563.898 558.158,552.946 558.176,552.801C558.194,552.659 558.268,552.53 558.383,552.443C560.725,550.679 563.565,549.542 566.654,549.284Z" style="fill:rgb(255,80,80);"/>
        </g>
    </g>
</svg>
