<svg width="919" height="124" viewBox="0 0 919 124" fill="none" xmlns="http://www.w3.org/2000/svg">
<path d="M21.1597 65.672V86H10.9957V32.1H32.0937C34.8657 32.1 37.2783 32.562 39.3317 33.486C41.385 34.3587 43.079 35.5393 44.4137 37.028C45.7997 38.4653 46.8263 40.1337 47.4937 42.033C48.2123 43.881 48.5717 45.7803 48.5717 47.731V49.579C48.5717 51.581 48.2123 53.5573 47.4937 55.508C46.8263 57.4073 45.7997 59.127 44.4137 60.667C43.079 62.1557 41.385 63.362 39.3317 64.286C37.2783 65.21 34.8657 65.672 32.0937 65.672H21.1597ZM21.1597 55.97H31.0927C33.3513 55.97 35.1223 55.354 36.4057 54.122C37.7403 52.89 38.4077 51.2987 38.4077 49.348V48.424C38.4077 46.4733 37.7403 44.882 36.4057 43.65C35.1223 42.418 33.3513 41.802 31.0927 41.802H21.1597V55.97ZM55.0631 32.1H65.2271V76.298H89.7131V86H55.0631V32.1ZM98.3606 32.1H132.395V41.802H108.525V54.122H131.471V63.824H108.525V76.298H133.319V86H98.3606V32.1ZM168.069 74.45H149.743L147.125 86H136.499L149.358 32.1H168.454L181.313 86H170.687L168.069 74.45ZM151.899 64.748H165.836L159.599 37.182H158.213L151.899 64.748ZM211.444 48.578C211.444 46.422 210.597 44.5483 208.903 42.957C207.26 41.3657 204.924 40.57 201.896 40.57C199.329 40.57 197.301 41.109 195.813 42.187C194.324 43.2137 193.58 44.6253 193.58 46.422C193.58 47.346 193.759 48.193 194.119 48.963C194.478 49.6817 195.094 50.349 195.967 50.965C196.891 51.5297 198.071 52.043 199.509 52.505C200.997 52.967 202.871 53.4033 205.13 53.814C210.776 54.8407 215.088 56.5603 218.066 58.973C221.043 61.3857 222.532 64.9533 222.532 69.676V70.6C222.532 73.1153 222.07 75.3997 221.146 77.453C220.273 79.455 218.99 81.1747 217.296 82.612C215.602 84.0493 213.548 85.153 211.136 85.923C208.723 86.693 206.002 87.078 202.974 87.078C199.432 87.078 196.3 86.5903 193.58 85.615C190.91 84.5883 188.677 83.2023 186.881 81.457C185.084 79.6603 183.724 77.5813 182.8 75.22C181.876 72.8073 181.414 70.1893 181.414 67.366V65.056H191.578V66.904C191.578 70.138 192.502 72.7303 194.35 74.681C196.249 76.5803 199.175 77.53 203.128 77.53C206.208 77.53 208.492 76.8627 209.981 75.528C211.469 74.1933 212.214 72.602 212.214 70.754C212.214 69.8813 212.06 69.06 211.752 68.29C211.444 67.4687 210.905 66.75 210.135 66.134C209.365 65.4667 208.312 64.8763 206.978 64.363C205.643 63.8497 203.949 63.4133 201.896 63.054C199.175 62.592 196.685 62.0017 194.427 61.283C192.168 60.513 190.192 59.512 188.498 58.28C186.855 57.048 185.572 55.508 184.648 53.66C183.724 51.812 183.262 49.5533 183.262 46.884V46.422C183.262 44.2147 183.698 42.187 184.571 40.339C185.495 38.4397 186.752 36.797 188.344 35.411C189.986 34.025 191.937 32.947 194.196 32.177C196.506 31.407 199.072 31.022 201.896 31.022C205.078 31.022 207.902 31.484 210.366 32.408C212.83 33.2807 214.883 34.487 216.526 36.027C218.22 37.567 219.477 39.338 220.299 41.34C221.171 43.342 221.608 45.4467 221.608 47.654V50.426H211.444V48.578ZM228.253 32.1H262.287V41.802H238.417V54.122H261.363V63.824H238.417V76.298H263.211V86H228.253V32.1ZM324.242 65.672V86H314.078V32.1H335.176C337.948 32.1 340.361 32.562 342.414 33.486C344.467 34.3587 346.161 35.5393 347.496 37.028C348.882 38.4653 349.909 40.1337 350.576 42.033C351.295 43.881 351.654 45.7803 351.654 47.731V49.579C351.654 51.581 351.295 53.5573 350.576 55.508C349.909 57.4073 348.882 59.127 347.496 60.667C346.161 62.1557 344.467 63.362 342.414 64.286C340.361 65.21 337.948 65.672 335.176 65.672H324.242ZM324.242 55.97H334.175C336.434 55.97 338.205 55.354 339.488 54.122C340.823 52.89 341.49 51.2987 341.49 49.348V48.424C341.49 46.4733 340.823 44.882 339.488 43.65C338.205 42.418 336.434 41.802 334.175 41.802H324.242V55.97ZM358.145 32.1H368.309V76.298H392.795V86H358.145V32.1ZM401.443 32.1H435.477V41.802H411.607V54.122H434.553V63.824H411.607V76.298H436.401V86H401.443V32.1ZM471.151 74.45H452.825L450.207 86H439.581L452.44 32.1H471.536L484.395 86H473.769L471.151 74.45ZM454.981 64.748H468.918L462.681 37.182H461.295L454.981 64.748ZM514.526 48.578C514.526 46.422 513.679 44.5483 511.985 42.957C510.342 41.3657 508.006 40.57 504.978 40.57C502.411 40.57 500.383 41.109 498.895 42.187C497.406 43.2137 496.662 44.6253 496.662 46.422C496.662 47.346 496.841 48.193 497.201 48.963C497.56 49.6817 498.176 50.349 499.049 50.965C499.973 51.5297 501.153 52.043 502.591 52.505C504.079 52.967 505.953 53.4033 508.212 53.814C513.858 54.8407 518.17 56.5603 521.148 58.973C524.125 61.3857 525.614 64.9533 525.614 69.676V70.6C525.614 73.1153 525.152 75.3997 524.228 77.453C523.355 79.455 522.072 81.1747 520.378 82.612C518.684 84.0493 516.63 85.153 514.218 85.923C511.805 86.693 509.084 87.078 506.056 87.078C502.514 87.078 499.382 86.5903 496.662 85.615C493.992 84.5883 491.759 83.2023 489.963 81.457C488.166 79.6603 486.806 77.5813 485.882 75.22C484.958 72.8073 484.496 70.1893 484.496 67.366V65.056H494.66V66.904C494.66 70.138 495.584 72.7303 497.432 74.681C499.331 76.5803 502.257 77.53 506.21 77.53C509.29 77.53 511.574 76.8627 513.063 75.528C514.551 74.1933 515.296 72.602 515.296 70.754C515.296 69.8813 515.142 69.06 514.834 68.29C514.526 67.4687 513.987 66.75 513.217 66.134C512.447 65.4667 511.394 64.8763 510.06 64.363C508.725 63.8497 507.031 63.4133 504.978 63.054C502.257 62.592 499.767 62.0017 497.509 61.283C495.25 60.513 493.274 59.512 491.58 58.28C489.937 57.048 488.654 55.508 487.73 53.66C486.806 51.812 486.344 49.5533 486.344 46.884V46.422C486.344 44.2147 486.78 42.187 487.653 40.339C488.577 38.4397 489.834 36.797 491.426 35.411C493.068 34.025 495.019 32.947 497.278 32.177C499.588 31.407 502.154 31.022 504.978 31.022C508.16 31.022 510.984 31.484 513.448 32.408C515.912 33.2807 517.965 34.487 519.608 36.027C521.302 37.567 522.559 39.338 523.381 41.34C524.253 43.342 524.69 45.4467 524.69 47.654V50.426H514.526V48.578ZM531.335 32.1H565.369V41.802H541.499V54.122H564.445V63.824H541.499V76.298H566.293V86H531.335V32.1ZM627.324 65.672V86H617.16V32.1H638.258C641.03 32.1 643.443 32.562 645.496 33.486C647.549 34.3587 649.243 35.5393 650.578 37.028C651.964 38.4653 652.991 40.1337 653.658 42.033C654.377 43.881 654.736 45.7803 654.736 47.731V49.579C654.736 51.581 654.377 53.5573 653.658 55.508C652.991 57.4073 651.964 59.127 650.578 60.667C649.243 62.1557 647.549 63.362 645.496 64.286C643.443 65.21 641.03 65.672 638.258 65.672H627.324ZM627.324 55.97H637.257C639.516 55.97 641.287 55.354 642.57 54.122C643.905 52.89 644.572 51.2987 644.572 49.348V48.424C644.572 46.4733 643.905 44.882 642.57 43.65C641.287 42.418 639.516 41.802 637.257 41.802H627.324V55.97ZM661.228 32.1H671.392V76.298H695.878V86H661.228V32.1ZM704.525 32.1H738.559V41.802H714.689V54.122H737.635V63.824H714.689V76.298H739.483V86H704.525V32.1ZM774.233 74.45H755.907L753.289 86H742.663L755.522 32.1H774.618L787.477 86H776.851L774.233 74.45ZM758.063 64.748H772L765.763 37.182H764.377L758.063 64.748ZM817.608 48.578C817.608 46.422 816.761 44.5483 815.067 42.957C813.424 41.3657 811.089 40.57 808.06 40.57C805.493 40.57 803.466 41.109 801.977 42.187C800.488 43.2137 799.744 44.6253 799.744 46.422C799.744 47.346 799.924 48.193 800.283 48.963C800.642 49.6817 801.258 50.349 802.131 50.965C803.055 51.5297 804.236 52.043 805.673 52.505C807.162 52.967 809.035 53.4033 811.294 53.814C816.941 54.8407 821.253 56.5603 824.23 58.973C827.207 61.3857 828.696 64.9533 828.696 69.676V70.6C828.696 73.1153 828.234 75.3997 827.31 77.453C826.437 79.455 825.154 81.1747 823.46 82.612C821.766 84.0493 819.713 85.153 817.3 85.923C814.887 86.693 812.167 87.078 809.138 87.078C805.596 87.078 802.465 86.5903 799.744 85.615C797.075 84.5883 794.842 83.2023 793.045 81.457C791.248 79.6603 789.888 77.5813 788.964 75.22C788.04 72.8073 787.578 70.1893 787.578 67.366V65.056H797.742V66.904C797.742 70.138 798.666 72.7303 800.514 74.681C802.413 76.5803 805.339 77.53 809.292 77.53C812.372 77.53 814.656 76.8627 816.145 75.528C817.634 74.1933 818.378 72.602 818.378 70.754C818.378 69.8813 818.224 69.06 817.916 68.29C817.608 67.4687 817.069 66.75 816.299 66.134C815.529 65.4667 814.477 64.8763 813.142 64.363C811.807 63.8497 810.113 63.4133 808.06 63.054C805.339 62.592 802.85 62.0017 800.591 61.283C798.332 60.513 796.356 59.512 794.662 58.28C793.019 57.048 791.736 55.508 790.812 53.66C789.888 51.812 789.426 49.5533 789.426 46.884V46.422C789.426 44.2147 789.862 42.187 790.735 40.339C791.659 38.4397 792.917 36.797 794.508 35.411C796.151 34.025 798.101 32.947 800.36 32.177C802.67 31.407 805.237 31.022 808.06 31.022C811.243 31.022 814.066 31.484 816.53 32.408C818.994 33.2807 821.047 34.487 822.69 36.027C824.384 37.567 825.642 39.338 826.463 41.34C827.336 43.342 827.772 45.4467 827.772 47.654V50.426H817.608V48.578ZM834.417 32.1H868.451V41.802H844.581V54.122H867.527V63.824H844.581V76.298H869.375V86H834.417V32.1ZM900.045 32.1V69.676H889.881V32.1H900.045ZM902.278 79.763C902.278 80.7897 902.073 81.765 901.662 82.689C901.303 83.5617 900.789 84.3317 900.122 84.999C899.455 85.615 898.659 86.1027 897.735 86.462C896.862 86.8727 895.938 87.078 894.963 87.078C893.936 87.078 892.987 86.8727 892.114 86.462C891.241 86.1027 890.471 85.615 889.804 84.999C889.137 84.3317 888.598 83.5617 888.187 82.689C887.828 81.765 887.648 80.7897 887.648 79.763C887.648 78.7363 887.828 77.7867 888.187 76.914C888.598 75.99 889.137 75.22 889.804 74.604C890.471 73.9367 891.241 73.4233 892.114 73.064C892.987 72.6533 893.936 72.448 894.963 72.448C895.938 72.448 896.862 72.6533 897.735 73.064C898.659 73.4233 899.455 73.9367 900.122 74.604C900.789 75.22 901.303 75.99 901.662 76.914C902.073 77.7867 902.278 78.7363 902.278 79.763Z" fill="#372525"/>
<path d="M11.0412 96.5664H13.2912L17.8662 113.166H18.1662L22.7412 96.5664H24.9912L20.0412 114.066H15.9912L11.0412 96.5664ZM54.2738 96.5664H65.3738V98.5164H60.8738V112.116H65.3738V114.066H54.2738V112.116H58.7738V98.5164H54.2738V96.5664ZM107.106 114.066H105.006V108.216C105.006 107.783 104.906 107.45 104.706 107.216C104.506 106.983 104.156 106.866 103.656 106.866H98.2064V114.066H96.1064V96.5664H102.356C103.256 96.5664 104.04 96.6997 104.706 96.9664C105.373 97.2164 105.923 97.5581 106.356 97.9914C106.806 98.4247 107.14 98.9331 107.356 99.5164C107.59 100.083 107.706 100.683 107.706 101.316V102.066C107.706 102.716 107.523 103.366 107.156 104.016C106.806 104.666 106.256 105.166 105.506 105.516V105.816C106.006 105.9 106.398 106.1 106.681 106.416C106.965 106.733 107.106 107.183 107.106 107.766V114.066ZM98.2064 104.916H102.106C103.29 104.916 104.165 104.666 104.731 104.166C105.315 103.65 105.606 102.9 105.606 101.916V101.466C105.606 100.583 105.315 99.8747 104.731 99.3414C104.165 98.7914 103.29 98.5164 102.106 98.5164H98.2064V104.916ZM137.289 96.5664H149.589V98.5164H144.489V114.066H142.389V98.5164H137.289V96.5664ZM181.347 96.5664V108.166C181.347 109.583 181.672 110.658 182.322 111.391C182.988 112.108 183.963 112.466 185.247 112.466C186.53 112.466 187.497 112.108 188.147 111.391C188.813 110.658 189.147 109.583 189.147 108.166V96.5664H191.247V108.166C191.247 110.2 190.713 111.75 189.647 112.816C188.58 113.883 187.113 114.416 185.247 114.416C183.38 114.416 181.913 113.883 180.847 112.816C179.78 111.75 179.247 110.2 179.247 108.166V96.5664H181.347ZM230.804 109.716H223.304L222.029 114.066H219.779L225.079 96.5664H229.029L234.329 114.066H232.079L230.804 109.716ZM226.904 97.4664L223.879 107.766H230.229L227.204 97.4664H226.904ZM263.387 96.5664H265.487V112.116H274.637V114.066H263.387V96.5664ZM346.327 96.5664H358.627V98.5164H353.527V114.066H351.427V98.5164H346.327V96.5664ZM388.735 96.5664H399.835V98.5164H395.335V112.116H399.835V114.066H388.735V112.116H393.235V98.5164H388.735V96.5664ZM436.192 112.466C436.909 112.466 437.517 112.35 438.017 112.116C438.534 111.866 438.951 111.541 439.267 111.141C439.601 110.725 439.842 110.258 439.992 109.741C440.159 109.208 440.242 108.65 440.242 108.066V107.766H442.342V108.066C442.342 108.95 442.209 109.783 441.942 110.566C441.676 111.333 441.284 112.008 440.767 112.591C440.251 113.158 439.609 113.608 438.842 113.941C438.076 114.258 437.192 114.416 436.192 114.416C434.259 114.416 432.751 113.808 431.667 112.591C430.584 111.375 430.042 109.6 430.042 107.266V103.366C430.042 101.1 430.584 99.3414 431.667 98.0914C432.751 96.8414 434.259 96.2164 436.192 96.2164C437.192 96.2164 438.076 96.3831 438.842 96.7164C439.609 97.0331 440.251 97.4831 440.767 98.0664C441.284 98.6331 441.676 99.3081 441.942 100.091C442.209 100.858 442.342 101.683 442.342 102.566V102.866H440.242V102.566C440.226 102 440.134 101.45 439.967 100.916C439.817 100.383 439.576 99.9164 439.242 99.5164C438.926 99.0997 438.517 98.7747 438.017 98.5414C437.517 98.2914 436.909 98.1664 436.192 98.1664C434.842 98.1664 433.826 98.6581 433.142 99.6414C432.476 100.625 432.142 101.916 432.142 103.516V107.116C432.142 108.833 432.476 110.158 433.142 111.091C433.826 112.008 434.842 112.466 436.192 112.466ZM474.575 114.066H472.475V96.5664H474.575V104.316H475.15L481.875 96.5664H484.475V96.7164L477.225 105.166V105.466L484.775 113.916V114.066H482.125L475.15 106.266H474.575V114.066ZM514.408 96.5664H525.008V98.5164H516.508V104.316H524.858V106.266H516.508V112.116H525.158V114.066H514.408V96.5664ZM555.365 96.5664H567.665V98.5164H562.565V114.066H560.465V98.5164H555.365V96.5664ZM638.63 96.5664H642.63L644.98 113.166H645.28L647.63 96.5664H651.63V114.066H649.68V97.4664H649.38L647.03 114.066H643.23L640.88 97.4664H640.58V114.066H638.63V96.5664ZM690.688 109.716H683.188L681.913 114.066H679.663L684.963 96.5664H688.913L694.213 114.066H691.963L690.688 109.716ZM686.788 97.4664L683.763 107.766H690.113L687.088 97.4664H686.788ZM728.846 112.466C729.562 112.466 730.171 112.35 730.671 112.116C731.187 111.866 731.604 111.541 731.921 111.141C732.254 110.725 732.496 110.258 732.646 109.741C732.812 109.208 732.896 108.65 732.896 108.066V107.766H734.996V108.066C734.996 108.95 734.862 109.783 734.596 110.566C734.329 111.333 733.937 112.008 733.421 112.591C732.904 113.158 732.262 113.608 731.496 113.941C730.729 114.258 729.846 114.416 728.846 114.416C726.912 114.416 725.404 113.808 724.321 112.591C723.237 111.375 722.696 109.6 722.696 107.266V103.366C722.696 101.1 723.237 99.3414 724.321 98.0914C725.404 96.8414 726.912 96.2164 728.846 96.2164C729.846 96.2164 730.729 96.3831 731.496 96.7164C732.262 97.0331 732.904 97.4831 733.421 98.0664C733.937 98.6331 734.329 99.3081 734.596 100.091C734.862 100.858 734.996 101.683 734.996 102.566V102.866H732.896V102.566C732.879 102 732.787 101.45 732.621 100.916C732.471 100.383 732.229 99.9164 731.896 99.5164C731.579 99.0997 731.171 98.7747 730.671 98.5414C730.171 98.2914 729.562 98.1664 728.846 98.1664C727.496 98.1664 726.479 98.6581 725.796 99.6414C725.129 100.625 724.796 101.916 724.796 103.516V107.116C724.796 108.833 725.129 110.158 725.796 111.091C726.479 112.008 727.496 112.466 728.846 112.466ZM764.728 96.5664H766.828V104.316H774.278V96.5664H776.378V114.066H774.278V106.266H766.828V114.066H764.728V96.5664ZM806.811 96.5664H817.911V98.5164H813.411V112.116H817.911V114.066H806.811V112.116H811.311V98.5164H806.811V96.5664ZM857.594 113.166H857.894V96.5664H859.994V114.066H855.794L850.744 97.4664H850.444V114.066H848.344V96.5664H852.544L857.594 113.166ZM890.676 96.5664H901.276V98.5164H892.776V104.316H901.126V106.266H892.776V112.116H901.426V114.066H890.676V96.5664Z" fill="#372525"/>
</svg>
