<svg width="870" height="127" viewBox="0 0 870 127" fill="#372525" xmlns="http://www.w3.org/2000/svg">
<path d="M15.8084 65.672V86H5.6444V32.1H26.7424C29.5144 32.1 31.9271 32.562 33.9804 33.486C36.0337 34.3587 37.7277 35.5393 39.0624 37.028C40.4484 38.4653 41.4751 40.1337 42.1424 42.033C42.8611 43.881 43.2204 45.7803 43.2204 47.731V49.579C43.2204 51.581 42.8611 53.5573 42.1424 55.508C41.4751 57.4073 40.4484 59.127 39.0624 60.667C37.7277 62.1557 36.0337 63.362 33.9804 64.286C31.9271 65.21 29.5144 65.672 26.7424 65.672H15.8084ZM15.8084 55.97H25.7414C28.0001 55.97 29.7711 55.354 31.0544 54.122C32.3891 52.89 33.0564 51.2987 33.0564 49.348V48.424C33.0564 46.4733 32.3891 44.882 31.0544 43.65C29.7711 42.418 28.0001 41.802 25.7414 41.802H15.8084V55.97ZM49.7119 32.1H59.8759V76.298H84.3619V86H49.7119V32.1ZM93.0093 32.1H127.043V41.802H103.173V54.122H126.119V63.824H103.173V76.298H127.967V86H93.0093V32.1ZM162.718 74.45H144.392L141.774 86H131.148L144.007 32.1H163.103L175.962 86H165.336L162.718 74.45ZM146.548 64.748H160.485L154.248 37.182H152.862L146.548 64.748ZM206.092 48.578C206.092 46.422 205.245 44.5483 203.551 42.957C201.909 41.3657 199.573 40.57 196.544 40.57C193.978 40.57 191.95 41.109 190.461 42.187C188.973 43.2137 188.228 44.6253 188.228 46.422C188.228 47.346 188.408 48.193 188.767 48.963C189.127 49.6817 189.743 50.349 190.615 50.965C191.539 51.5297 192.72 52.043 194.157 52.505C195.646 52.967 197.52 53.4033 199.778 53.814C205.425 54.8407 209.737 56.5603 212.714 58.973C215.692 61.3857 217.18 64.9533 217.18 69.676V70.6C217.18 73.1153 216.718 75.3997 215.794 77.453C214.922 79.455 213.638 81.1747 211.944 82.612C210.25 84.0493 208.197 85.153 205.784 85.923C203.372 86.693 200.651 87.078 197.622 87.078C194.08 87.078 190.949 86.5903 188.228 85.615C185.559 84.5883 183.326 83.2023 181.529 81.457C179.733 79.6603 178.372 77.5813 177.448 75.22C176.524 72.8073 176.062 70.1893 176.062 67.366V65.056H186.226V66.904C186.226 70.138 187.15 72.7303 188.998 74.681C190.898 76.5803 193.824 77.53 197.776 77.53C200.856 77.53 203.141 76.8627 204.629 75.528C206.118 74.1933 206.862 72.602 206.862 70.754C206.862 69.8813 206.708 69.06 206.4 68.29C206.092 67.4687 205.553 66.75 204.783 66.134C204.013 65.4667 202.961 64.8763 201.626 64.363C200.292 63.8497 198.598 63.4133 196.544 63.054C193.824 62.592 191.334 62.0017 189.075 61.283C186.817 60.513 184.84 59.512 183.146 58.28C181.504 57.048 180.22 55.508 179.296 53.66C178.372 51.812 177.91 49.5533 177.91 46.884V46.422C177.91 44.2147 178.347 42.187 179.219 40.339C180.143 38.4397 181.401 36.797 182.992 35.411C184.635 34.025 186.586 32.947 188.844 32.177C191.154 31.407 193.721 31.022 196.544 31.022C199.727 31.022 202.55 31.484 205.014 32.408C207.478 33.2807 209.532 34.487 211.174 36.027C212.868 37.567 214.126 39.338 214.947 41.34C215.82 43.342 216.256 45.4467 216.256 47.654V50.426H206.092V48.578ZM222.902 32.1H256.936V41.802H233.066V54.122H256.012V63.824H233.066V76.298H257.86V86H222.902V32.1ZM318.891 65.672V86H308.727V32.1H329.825C332.597 32.1 335.009 32.562 337.063 33.486C339.116 34.3587 340.81 35.5393 342.145 37.028C343.531 38.4653 344.557 40.1337 345.225 42.033C345.943 43.881 346.303 45.7803 346.303 47.731V49.579C346.303 51.581 345.943 53.5573 345.225 55.508C344.557 57.4073 343.531 59.127 342.145 60.667C340.81 62.1557 339.116 63.362 337.063 64.286C335.009 65.21 332.597 65.672 329.825 65.672H318.891ZM318.891 55.97H328.824C331.082 55.97 332.853 55.354 334.137 54.122C335.471 52.89 336.139 51.2987 336.139 49.348V48.424C336.139 46.4733 335.471 44.882 334.137 43.65C332.853 42.418 331.082 41.802 328.824 41.802H318.891V55.97ZM352.794 32.1H362.958V76.298H387.444V86H352.794V32.1ZM396.092 32.1H430.126V41.802H406.256V54.122H429.202V63.824H406.256V76.298H431.05V86H396.092V32.1ZM465.8 74.45H447.474L444.856 86H434.23L447.089 32.1H466.185L479.044 86H468.418L465.8 74.45ZM449.63 64.748H463.567L457.33 37.182H455.944L449.63 64.748ZM509.174 48.578C509.174 46.422 508.327 44.5483 506.633 42.957C504.991 41.3657 502.655 40.57 499.626 40.57C497.06 40.57 495.032 41.109 493.543 42.187C492.055 43.2137 491.31 44.6253 491.31 46.422C491.31 47.346 491.49 48.193 491.849 48.963C492.209 49.6817 492.825 50.349 493.697 50.965C494.621 51.5297 495.802 52.043 497.239 52.505C498.728 52.967 500.602 53.4033 502.86 53.814C508.507 54.8407 512.819 56.5603 515.796 58.973C518.774 61.3857 520.262 64.9533 520.262 69.676V70.6C520.262 73.1153 519.8 75.3997 518.876 77.453C518.004 79.455 516.72 81.1747 515.026 82.612C513.332 84.0493 511.279 85.153 508.866 85.923C506.454 86.693 503.733 87.078 500.704 87.078C497.162 87.078 494.031 86.5903 491.31 85.615C488.641 84.5883 486.408 83.2023 484.611 81.457C482.815 79.6603 481.454 77.5813 480.53 75.22C479.606 72.8073 479.144 70.1893 479.144 67.366V65.056H489.308V66.904C489.308 70.138 490.232 72.7303 492.08 74.681C493.98 76.5803 496.906 77.53 500.858 77.53C503.938 77.53 506.223 76.8627 507.711 75.528C509.2 74.1933 509.944 72.602 509.944 70.754C509.944 69.8813 509.79 69.06 509.482 68.29C509.174 67.4687 508.635 66.75 507.865 66.134C507.095 65.4667 506.043 64.8763 504.708 64.363C503.374 63.8497 501.68 63.4133 499.626 63.054C496.906 62.592 494.416 62.0017 492.157 61.283C489.899 60.513 487.922 59.512 486.228 58.28C484.586 57.048 483.302 55.508 482.378 53.66C481.454 51.812 480.992 49.5533 480.992 46.884V46.422C480.992 44.2147 481.429 42.187 482.301 40.339C483.225 38.4397 484.483 36.797 486.074 35.411C487.717 34.025 489.668 32.947 491.926 32.177C494.236 31.407 496.803 31.022 499.626 31.022C502.809 31.022 505.632 31.484 508.096 32.408C510.56 33.2807 512.614 34.487 514.256 36.027C515.95 37.567 517.208 39.338 518.029 41.34C518.902 43.342 519.338 45.4467 519.338 47.654V50.426H509.174V48.578ZM525.984 32.1H560.018V41.802H536.148V54.122H559.094V63.824H536.148V76.298H560.942V86H525.984V32.1ZM621.973 65.672V86H611.809V32.1H632.907C635.679 32.1 638.091 32.562 640.145 33.486C642.198 34.3587 643.892 35.5393 645.227 37.028C646.613 38.4653 647.64 40.1337 648.307 42.033C649.025 43.881 649.385 45.7803 649.385 47.731V49.579C649.385 51.581 649.025 53.5573 648.307 55.508C647.64 57.4073 646.613 59.127 645.227 60.667C643.892 62.1557 642.198 63.362 640.145 64.286C638.091 65.21 635.679 65.672 632.907 65.672H621.973ZM621.973 55.97H631.906C634.164 55.97 635.935 55.354 637.219 54.122C638.554 52.89 639.221 51.2987 639.221 49.348V48.424C639.221 46.4733 638.554 44.882 637.219 43.65C635.935 42.418 634.164 41.802 631.906 41.802H621.973V55.97ZM655.876 32.1H666.04V76.298H690.526V86H655.876V32.1ZM699.174 32.1H733.208V41.802H709.338V54.122H732.284V63.824H709.338V76.298H734.132V86H699.174V32.1ZM768.882 74.45H750.556L747.938 86H737.312L750.171 32.1H769.267L782.126 86H771.5L768.882 74.45ZM752.712 64.748H766.649L760.412 37.182H759.026L752.712 64.748ZM812.257 48.578C812.257 46.422 811.41 44.5483 809.716 42.957C808.073 41.3657 805.737 40.57 802.709 40.57C800.142 40.57 798.114 41.109 796.626 42.187C795.137 43.2137 794.393 44.6253 794.393 46.422C794.393 47.346 794.572 48.193 794.932 48.963C795.291 49.6817 795.907 50.349 796.78 50.965C797.704 51.5297 798.884 52.043 800.322 52.505C801.81 52.967 803.684 53.4033 805.943 53.814C811.589 54.8407 815.901 56.5603 818.879 58.973C821.856 61.3857 823.345 64.9533 823.345 69.676V70.6C823.345 73.1153 822.883 75.3997 821.959 77.453C821.086 79.455 819.803 81.1747 818.109 82.612C816.415 84.0493 814.361 85.153 811.949 85.923C809.536 86.693 806.815 87.078 803.787 87.078C800.245 87.078 797.113 86.5903 794.393 85.615C791.723 84.5883 789.49 83.2023 787.694 81.457C785.897 79.6603 784.537 77.5813 783.613 75.22C782.689 72.8073 782.227 70.1893 782.227 67.366V65.056H792.391V66.904C792.391 70.138 793.315 72.7303 795.163 74.681C797.062 76.5803 799.988 77.53 803.941 77.53C807.021 77.53 809.305 76.8627 810.794 75.528C812.282 74.1933 813.027 72.602 813.027 70.754C813.027 69.8813 812.873 69.06 812.565 68.29C812.257 67.4687 811.718 66.75 810.948 66.134C810.178 65.4667 809.125 64.8763 807.791 64.363C806.456 63.8497 804.762 63.4133 802.709 63.054C799.988 62.592 797.498 62.0017 795.24 61.283C792.981 60.513 791.005 59.512 789.311 58.28C787.668 57.048 786.385 55.508 785.461 53.66C784.537 51.812 784.075 49.5533 784.075 46.884V46.422C784.075 44.2147 784.511 42.187 785.384 40.339C786.308 38.4397 787.565 36.797 789.157 35.411C790.799 34.025 792.75 32.947 795.009 32.177C797.319 31.407 799.885 31.022 802.709 31.022C805.891 31.022 808.715 31.484 811.179 32.408C813.643 33.2807 815.696 34.487 817.339 36.027C819.033 37.567 820.29 39.338 821.112 41.34C821.984 43.342 822.421 45.4467 822.421 47.654V50.426H812.257V48.578ZM829.066 32.1H863.1V41.802H839.23V54.122H862.176V63.824H839.23V76.298H864.024V86H829.066V32.1Z" fill="#372525"/>
<path d="M6.87957 100.7H9.03957L13.4316 116.636H13.7196L18.1116 100.7H20.2716L15.5196 117.5H11.6316L6.87957 100.7ZM48.3829 100.7H59.0389V102.572H54.7189V115.628H59.0389V117.5H48.3829V115.628H52.7029V102.572H48.3829V100.7ZM99.1022 117.5H97.0862V111.884C97.0862 111.468 96.9902 111.148 96.7982 110.924C96.6062 110.7 96.2702 110.588 95.7902 110.588H90.5582V117.5H88.5422V100.7H94.5422C95.4062 100.7 96.1582 100.828 96.7982 101.084C97.4382 101.324 97.9662 101.652 98.3822 102.068C98.8142 102.484 99.1342 102.972 99.3422 103.532C99.5662 104.076 99.6782 104.652 99.6782 105.26V105.98C99.6782 106.604 99.5022 107.228 99.1502 107.852C98.8142 108.476 98.2862 108.956 97.5662 109.292V109.58C98.0462 109.66 98.4222 109.852 98.6942 110.156C98.9662 110.46 99.1022 110.892 99.1022 111.452V117.5ZM90.5582 108.716H94.3022C95.4382 108.716 96.2782 108.476 96.8222 107.996C97.3822 107.5 97.6622 106.78 97.6622 105.836V105.404C97.6622 104.556 97.3822 103.876 96.8222 103.364C96.2782 102.836 95.4382 102.572 94.3022 102.572H90.5582V108.716ZM128.078 100.7H139.886V102.572H134.99V117.5H132.974V102.572H128.078V100.7ZM170.373 100.7V111.836C170.373 113.196 170.685 114.228 171.309 114.932C171.949 115.62 172.885 115.964 174.117 115.964C175.349 115.964 176.277 115.62 176.901 114.932C177.541 114.228 177.861 113.196 177.861 111.836V100.7H179.877V111.836C179.877 113.788 179.365 115.276 178.341 116.3C177.317 117.324 175.909 117.836 174.117 117.836C172.325 117.836 170.917 117.324 169.893 116.3C168.869 115.276 168.357 113.788 168.357 111.836V100.7H170.373ZM217.852 113.324H210.652L209.428 117.5H207.268L212.356 100.7H216.148L221.236 117.5H219.076L217.852 113.324ZM214.108 101.564L211.204 111.452H217.3L214.396 101.564H214.108ZM249.131 100.7H251.147V115.628H259.931V117.5H249.131V100.7ZM328.754 100.7H340.562V102.572H335.666V117.5H333.65V102.572H328.754V100.7ZM369.465 100.7H380.121V102.572H375.801V115.628H380.121V117.5H369.465V115.628H373.785V102.572H369.465V100.7ZM415.025 115.964C415.713 115.964 416.297 115.852 416.777 115.628C417.273 115.388 417.673 115.076 417.977 114.692C418.297 114.292 418.529 113.844 418.673 113.348C418.833 112.836 418.913 112.3 418.913 111.74V111.452H420.929V111.74C420.929 112.588 420.801 113.388 420.545 114.14C420.289 114.876 419.913 115.524 419.417 116.084C418.921 116.628 418.305 117.06 417.569 117.38C416.833 117.684 415.985 117.836 415.025 117.836C413.169 117.836 411.721 117.252 410.681 116.084C409.641 114.916 409.121 113.212 409.121 110.972V107.228C409.121 105.052 409.641 103.364 410.681 102.164C411.721 100.964 413.169 100.364 415.025 100.364C415.985 100.364 416.833 100.524 417.569 100.844C418.305 101.148 418.921 101.58 419.417 102.14C419.913 102.684 420.289 103.332 420.545 104.084C420.801 104.82 420.929 105.612 420.929 106.46V106.748H418.913V106.46C418.897 105.916 418.809 105.388 418.649 104.876C418.505 104.364 418.273 103.916 417.953 103.532C417.649 103.132 417.257 102.82 416.777 102.596C416.297 102.356 415.713 102.236 415.025 102.236C413.729 102.236 412.753 102.708 412.097 103.652C411.457 104.596 411.137 105.836 411.137 107.372V110.828C411.137 112.476 411.457 113.748 412.097 114.644C412.753 115.524 413.729 115.964 415.025 115.964ZM451.872 117.5H449.856V100.7H451.872V108.14H452.424L458.88 100.7H461.376V100.844L454.416 108.956V109.244L461.664 117.356V117.5H459.12L452.424 110.012H451.872V117.5ZM490.111 100.7H500.287V102.572H492.127V108.14H500.143V110.012H492.127V115.628H500.431V117.5H490.111V100.7ZM529.431 100.7H541.239V102.572H536.343V117.5H534.327V102.572H529.431V100.7ZM609.365 100.7H613.205L615.461 116.636H615.749L618.005 100.7H621.845V117.5H619.973V101.564H619.685L617.429 117.5H613.781L611.525 101.564H611.237V117.5H609.365V100.7ZM659.341 113.324H652.141L650.917 117.5H648.757L653.845 100.7H657.637L662.725 117.5H660.565L659.341 113.324ZM655.597 101.564L652.693 111.452H658.789L655.885 101.564H655.597ZM695.972 115.964C696.66 115.964 697.244 115.852 697.724 115.628C698.22 115.388 698.62 115.076 698.924 114.692C699.244 114.292 699.476 113.844 699.62 113.348C699.78 112.836 699.86 112.3 699.86 111.74V111.452H701.876V111.74C701.876 112.588 701.748 113.388 701.492 114.14C701.236 114.876 700.86 115.524 700.364 116.084C699.868 116.628 699.252 117.06 698.516 117.38C697.78 117.684 696.932 117.836 695.972 117.836C694.116 117.836 692.668 117.252 691.628 116.084C690.588 114.916 690.068 113.212 690.068 110.972V107.228C690.068 105.052 690.588 103.364 691.628 102.164C692.668 100.964 694.116 100.364 695.972 100.364C696.932 100.364 697.78 100.524 698.516 100.844C699.252 101.148 699.868 101.58 700.364 102.14C700.86 102.684 701.236 103.332 701.492 104.084C701.748 104.82 701.876 105.612 701.876 106.46V106.748H699.86V106.46C699.844 105.916 699.756 105.388 699.596 104.876C699.452 104.364 699.22 103.916 698.9 103.532C698.596 103.132 698.204 102.82 697.724 102.596C697.244 102.356 696.66 102.236 695.972 102.236C694.676 102.236 693.7 102.708 693.044 103.652C692.404 104.596 692.084 105.836 692.084 107.372V110.828C692.084 112.476 692.404 113.748 693.044 114.644C693.7 115.524 694.676 115.964 695.972 115.964ZM730.419 100.7H732.435V108.14H739.587V100.7H741.603V117.5H739.587V110.012H732.435V117.5H730.419V100.7ZM770.818 100.7H781.474V102.572H777.154V115.628H781.474V117.5H770.818V115.628H775.138V102.572H770.818V100.7ZM819.57 116.636H819.858V100.7H821.874V117.5H817.842L812.994 101.564H812.706V117.5H810.69V100.7H814.722L819.57 116.636ZM851.329 100.7H861.505V102.572H853.345V108.14H861.361V110.012H853.345V115.628H861.649V117.5H851.329V100.7Z" fill="#372525"/>
</svg>

