<?xml version="1.0" encoding="UTF-8" standalone="no"?>
<!DOCTYPE svg PUBLIC "-//W3C//DTD SVG 1.1//EN" "http://www.w3.org/Graphics/SVG/1.1/DTD/svg11.dtd">
<svg width="100%" height="100%" viewBox="0 0 31 37" version="1.1" xmlns="http://www.w3.org/2000/svg" xmlns:xlink="http://www.w3.org/1999/xlink" xml:space="preserve" xmlns:serif="http://www.serif.com/" style="fill-rule:evenodd;clip-rule:evenodd;stroke-linejoin:round;stroke-miterlimit:2;">
    <g transform="matrix(1,0,0,1,-1032.34,-492.375)">
        <g transform="matrix(1.14268,0,0,1.14268,398.33,-147.545)">
            <path d="M567.238,560.018L567.187,563.054L568.589,565.065L568.599,565.038L572.1,570.376L571.153,570.751C570.65,570.95 570.083,570.903 569.62,570.624L568.058,569.682L567.261,569.779L566.585,580.363C566.572,580.57 566.4,580.731 566.193,580.731L565.27,580.731C565.063,580.731 564.892,580.571 564.878,580.365L564.299,571.816L563.844,571.674L562.386,581.599C562.355,581.804 562.172,581.95 561.965,581.933L561.045,581.857C560.839,581.84 560.682,581.667 560.685,581.461L560.84,570.739L560.668,570.685L558.407,579.965C558.358,580.166 558.16,580.295 557.957,580.258L557.147,580.113C556.943,580.077 556.803,579.889 556.826,579.683L557.942,569.73L556.037,573.391C555.942,573.575 555.719,573.653 555.53,573.569L555.079,573.368C554.89,573.285 554.799,573.069 554.87,572.875L558.116,564.048L558.204,563.352C560.724,561.397 563.843,560.177 567.238,560.018ZM568.777,591.981L568.813,589.85L567.411,587.84L567.401,587.866L563.9,582.528L564.847,582.153C565.35,581.954 565.917,582.001 566.38,582.28L567.942,583.223L568.739,583.125L569.415,572.541C569.428,572.334 569.6,572.174 569.807,572.174L570.73,572.174C570.937,572.174 571.108,572.334 571.122,572.539L571.701,581.088L572.156,581.230L573.614,571.305C573.645,571.101 573.828,570.955 574.035,570.972L574.955,571.047C575.161,571.064 575.318,571.238 575.315,571.444L575.16,582.166L575.332,582.219L577.593,572.94C577.642,572.738 577.84,572.61 578.043,572.646L578.853,572.791C579.057,572.828 579.197,573.016 579.174,573.221L578.058,583.175L579.963,579.513C580.058,579.329 580.281,579.252 580.47,579.336L580.921,579.536C581.11,579.62 581.201,579.836 581.13,580.03L578.028,588.464C575.472,590.524 572.271,591.814 568.777,591.981Z" style="fill:rgb(255,80,80);"/>
        </g>
    </g>
</svg>
